<svg width="20" height="20" viewBox="0 0 20 20" fill="none" xmlns="http://www.w3.org/2000/svg">
<path d="M3.33332 16.6666C2.87499 16.6666 2.48263 16.5034 2.15624 16.177C1.82985 15.8506 1.66666 15.4583 1.66666 14.9999V4.99992C1.66666 4.54159 1.82985 4.14922 2.15624 3.82284C2.48263 3.49645 2.87499 3.33325 3.33332 3.33325H16.6667C17.125 3.33325 17.5174 3.49645 17.8437 3.82284C18.1701 4.14922 18.3333 4.54159 18.3333 4.99992V14.9999C18.3333 15.4583 18.1701 15.8506 17.8437 16.177C17.5174 16.5034 17.125 16.6666 16.6667 16.6666H3.33332ZM9.99999 10.8333L3.33332 6.66658V14.9999H16.6667V6.66658L9.99999 10.8333ZM9.99999 9.16658L16.6667 4.99992H3.33332L9.99999 9.16658ZM3.33332 6.66658V4.99992V14.9999V6.66658Z" fill="#9C9C9C"/>
</svg>
