<svg width="20" height="20" viewBox="0 0 20 20" fill="none" xmlns="http://www.w3.org/2000/svg">
<path d="M10 10.0001C10.4583 10.0001 10.8507 9.83689 11.1771 9.5105C11.5035 9.18411 11.6667 8.79175 11.6667 8.33341C11.6667 7.87508 11.5035 7.48272 11.1771 7.15633C10.8507 6.82994 10.4583 6.66675 10 6.66675C9.54168 6.66675 9.14932 6.82994 8.82293 7.15633C8.49654 7.48272 8.33334 7.87508 8.33334 8.33341C8.33334 8.79175 8.49654 9.18411 8.82293 9.5105C9.14932 9.83689 9.54168 10.0001 10 10.0001ZM10 16.1251C11.6945 14.5695 12.9514 13.1563 13.7708 11.8855C14.5903 10.6147 15 9.48619 15 8.50008C15 6.98619 14.5174 5.74661 13.5521 4.78133C12.5868 3.81605 11.4028 3.33341 10 3.33341C8.59723 3.33341 7.4132 3.81605 6.44793 4.78133C5.48265 5.74661 5.00001 6.98619 5.00001 8.50008C5.00001 9.48619 5.40973 10.6147 6.22918 11.8855C7.04862 13.1563 8.30557 14.5695 10 16.1251ZM10 18.3334C7.7639 16.4306 6.09376 14.6633 4.98959 13.0313C3.88543 11.3994 3.33334 9.88897 3.33334 8.50008C3.33334 6.41675 4.00348 4.75703 5.34376 3.52091C6.68404 2.2848 8.23612 1.66675 10 1.66675C11.7639 1.66675 13.316 2.2848 14.6563 3.52091C15.9965 4.75703 16.6667 6.41675 16.6667 8.50008C16.6667 9.88897 16.1146 11.3994 15.0104 13.0313C13.9063 14.6633 12.2361 16.4306 10 18.3334Z" fill="#9C9C9C"/>
</svg>
