<svg width="24" height="20" viewBox="0 0 24 20" fill="none" xmlns="http://www.w3.org/2000/svg">
<path d="M22.6 19.9881C19.8222 19.9881 17.0778 19.4837 14.3667 18.4751C11.6556 17.4664 9.18889 16.0367 6.96667 14.186C4.74444 12.3352 3.02778 10.2809 1.81667 8.02299C0.605556 5.76508 0 3.4794 0 1.16597C0 0.832836 0.133333 0.555224 0.4 0.333134C0.666667 0.111045 1 0 1.4 0H6.8C7.11111 0 7.38889 0.0879105 7.63333 0.263731C7.87778 0.439552 8.02222 0.647761 8.06667 0.888358L8.93333 4.77493C8.97778 5.07105 8.96667 5.3209 8.9 5.52448C8.83333 5.72806 8.71111 5.90388 8.53333 6.05194L5.3 8.77254C5.74444 9.45731 6.27222 10.119 6.88333 10.7575C7.49444 11.396 8.16667 12.0113 8.9 12.6036C9.58889 13.1773 10.3111 13.7094 11.0667 14.1999C11.8222 14.6903 12.6222 15.1391 13.4667 15.5463L16.6 12.9367C16.8 12.7702 17.0611 12.6452 17.3833 12.5619C17.7056 12.4787 18.0222 12.4555 18.3333 12.4925L22.9333 13.2699C23.2444 13.3439 23.5 13.4781 23.7 13.6724C23.9 13.8667 24 14.0842 24 14.3248V18.8221C24 19.1552 23.8667 19.4328 23.6 19.6549C23.3333 19.877 23 19.9881 22.6 19.9881ZM4.03333 6.66269L6.23333 4.83045L5.66667 2.2209H2.7C2.81111 2.9797 2.96667 3.72925 3.16667 4.46955C3.36667 5.20985 3.65556 5.9409 4.03333 6.66269ZM15.9667 16.6012C16.8333 16.9158 17.7167 17.1657 18.6167 17.3507C19.5167 17.5358 20.4222 17.6561 21.3333 17.7116V15.2687L18.2 14.7412L15.9667 16.6012Z" fill="white"/>
</svg>
