<svg width="20" height="20" viewBox="0 0 20 20" fill="none" xmlns="http://www.w3.org/2000/svg">
<path d="M9.99999 14.5833C11.0417 14.5833 11.9271 14.2188 12.6562 13.4896C13.3854 12.7604 13.75 11.875 13.75 10.8333C13.75 9.79167 13.3854 8.90625 12.6562 8.17708C11.9271 7.44792 11.0417 7.08333 9.99999 7.08333C8.95832 7.08333 8.07291 7.44792 7.34374 8.17708C6.61457 8.90625 6.24999 9.79167 6.24999 10.8333C6.24999 11.875 6.61457 12.7604 7.34374 13.4896C8.07291 14.2188 8.95832 14.5833 9.99999 14.5833ZM9.99999 12.9167C9.41666 12.9167 8.9236 12.7153 8.52082 12.3125C8.11804 11.9097 7.91666 11.4167 7.91666 10.8333C7.91666 10.25 8.11804 9.75694 8.52082 9.35417C8.9236 8.95139 9.41666 8.75 9.99999 8.75C10.5833 8.75 11.0764 8.95139 11.4792 9.35417C11.8819 9.75694 12.0833 10.25 12.0833 10.8333C12.0833 11.4167 11.8819 11.9097 11.4792 12.3125C11.0764 12.7153 10.5833 12.9167 9.99999 12.9167ZM3.33332 17.5C2.87499 17.5 2.48263 17.3368 2.15624 17.0104C1.82985 16.684 1.66666 16.2917 1.66666 15.8333V5.83333C1.66666 5.375 1.82985 4.98264 2.15624 4.65625C2.48263 4.32986 2.87499 4.16667 3.33332 4.16667H5.95832L7.49999 2.5H12.5L14.0417 4.16667H16.6667C17.125 4.16667 17.5174 4.32986 17.8437 4.65625C18.1701 4.98264 18.3333 5.375 18.3333 5.83333V15.8333C18.3333 16.2917 18.1701 16.684 17.8437 17.0104C17.5174 17.3368 17.125 17.5 16.6667 17.5H3.33332ZM3.33332 15.8333H16.6667V5.83333H13.2917L11.7708 4.16667H8.22916L6.70832 5.83333H3.33332V15.8333Z" fill="#B3B3B3"/>
</svg>
