<svg xmlns="http://www.w3.org/2000/svg" xmlns:xlink="http://www.w3.org/1999/xlink" width="200" zoomAndPan="magnify" viewBox="0 0 150 74.999997" height="100" preserveAspectRatio="xMidYMid meet" version="1.0"><defs><g/><clipPath id="6e46e68620"><path d="M 76 20 L 89.492188 20 L 89.492188 37 L 76 37 Z M 76 20 " clip-rule="nonzero"/></clipPath><clipPath id="d8bcf0b71c"><path d="M 75 11.179688 L 89 11.179688 L 89 37.429688 L 75 37.429688 Z M 75 11.179688 " clip-rule="nonzero"/></clipPath><clipPath id="803c471f4c"><path d="M 60.242188 20 L 74 20 L 74 37 L 60.242188 37 Z M 60.242188 20 " clip-rule="nonzero"/></clipPath><clipPath id="b29f690e0b"><path d="M 61 11.179688 L 75 11.179688 L 75 37.429688 L 61 37.429688 Z M 61 11.179688 " clip-rule="nonzero"/></clipPath></defs><g fill="#ffffff" fill-opacity="1"><g transform="translate(1.063847, 51.732545)"><g><path d="M 10.703125 -9.90625 L 6.40625 0 L 4.140625 0 L -0.125 -9.90625 L 2.34375 -9.90625 L 5.359375 -2.828125 L 8.421875 -9.90625 Z M 10.703125 -9.90625 "/></g></g></g><g fill="#ffffff" fill-opacity="1"><g transform="translate(12.88484, 51.732545)"><g><path d="M 1.171875 -9.90625 L 3.46875 -9.90625 L 3.46875 0 L 1.171875 0 Z M 1.171875 -9.90625 "/></g></g></g><g fill="#ffffff" fill-opacity="1"><g transform="translate(18.788562, 51.732545)"><g><path d="M 10.265625 -9.90625 L 10.265625 0 L 8.375 0 L 3.4375 -6.015625 L 3.4375 0 L 1.171875 0 L 1.171875 -9.90625 L 3.078125 -9.90625 L 8 -3.890625 L 8 -9.90625 Z M 10.265625 -9.90625 "/></g></g></g><g fill="#ffffff" fill-opacity="1"><g transform="translate(31.487236, 51.732545)"><g><path d="M 1.171875 -9.90625 L 3.46875 -9.90625 L 3.46875 0 L 1.171875 0 Z M 2.9375 -12.75 L 5.3125 -12.75 L 2.75 -10.71875 L 1.03125 -10.71875 Z M 2.9375 -12.75 "/></g></g></g><g fill="#ffffff" fill-opacity="1"><g transform="translate(37.390959, 51.732545)"><g><path d="M 5.921875 0.171875 C 4.910156 0.171875 3.992188 -0.046875 3.171875 -0.484375 C 2.359375 -0.921875 1.71875 -1.53125 1.25 -2.3125 C 0.78125 -3.09375 0.546875 -3.972656 0.546875 -4.953125 C 0.546875 -5.929688 0.78125 -6.8125 1.25 -7.59375 C 1.71875 -8.375 2.359375 -8.984375 3.171875 -9.421875 C 3.992188 -9.859375 4.914062 -10.078125 5.9375 -10.078125 C 6.789062 -10.078125 7.5625 -9.925781 8.25 -9.625 C 8.945312 -9.320312 9.535156 -8.890625 10.015625 -8.328125 L 8.53125 -6.96875 C 7.863281 -7.738281 7.035156 -8.125 6.046875 -8.125 C 5.429688 -8.125 4.882812 -7.988281 4.40625 -7.71875 C 3.925781 -7.445312 3.550781 -7.070312 3.28125 -6.59375 C 3.007812 -6.113281 2.875 -5.566406 2.875 -4.953125 C 2.875 -4.335938 3.007812 -3.789062 3.28125 -3.3125 C 3.550781 -2.832031 3.925781 -2.457031 4.40625 -2.1875 C 4.882812 -1.914062 5.429688 -1.78125 6.046875 -1.78125 C 7.035156 -1.78125 7.863281 -2.171875 8.53125 -2.953125 L 10.015625 -1.59375 C 9.535156 -1.019531 8.945312 -0.582031 8.25 -0.28125 C 7.550781 0.0195312 6.773438 0.171875 5.921875 0.171875 Z M 5.921875 0.171875 "/></g></g></g><g fill="#ffffff" fill-opacity="1"><g transform="translate(49.027931, 51.732545)"><g><path d="M 1.171875 -9.90625 L 3.46875 -9.90625 L 3.46875 0 L 1.171875 0 Z M 1.171875 -9.90625 "/></g></g></g><g fill="#ffffff" fill-opacity="1"><g transform="translate(54.931652, 51.732545)"><g><path d="M 5.578125 0.171875 C 4.160156 0.171875 3.054688 -0.21875 2.265625 -1 C 1.484375 -1.789062 1.09375 -2.910156 1.09375 -4.359375 L 1.09375 -9.90625 L 3.390625 -9.90625 L 3.390625 -4.4375 C 3.390625 -2.664062 4.125 -1.78125 5.59375 -1.78125 C 6.3125 -1.78125 6.859375 -1.992188 7.234375 -2.421875 C 7.609375 -2.859375 7.796875 -3.53125 7.796875 -4.4375 L 7.796875 -9.90625 L 10.0625 -9.90625 L 10.0625 -4.359375 C 10.0625 -2.910156 9.664062 -1.789062 8.875 -1 C 8.09375 -0.21875 6.992188 0.171875 5.578125 0.171875 Z M 5.578125 0.171875 "/></g></g></g><g fill="#ffffff" fill-opacity="1"><g transform="translate(67.347208, 51.732545)"><g><path d="M 4.4375 0.171875 C 3.644531 0.171875 2.882812 0.0664062 2.15625 -0.140625 C 1.425781 -0.359375 0.835938 -0.640625 0.390625 -0.984375 L 1.171875 -2.703125 C 1.597656 -2.390625 2.101562 -2.140625 2.6875 -1.953125 C 3.269531 -1.765625 3.851562 -1.671875 4.4375 -1.671875 C 5.09375 -1.671875 5.578125 -1.765625 5.890625 -1.953125 C 6.203125 -2.148438 6.359375 -2.410156 6.359375 -2.734375 C 6.359375 -2.972656 6.265625 -3.164062 6.078125 -3.3125 C 5.890625 -3.46875 5.648438 -3.59375 5.359375 -3.6875 C 5.078125 -3.789062 4.691406 -3.894531 4.203125 -4 C 3.453125 -4.1875 2.832031 -4.367188 2.34375 -4.546875 C 1.863281 -4.722656 1.453125 -5.007812 1.109375 -5.40625 C 0.765625 -5.800781 0.59375 -6.332031 0.59375 -7 C 0.59375 -7.570312 0.75 -8.09375 1.0625 -8.5625 C 1.375 -9.03125 1.84375 -9.398438 2.46875 -9.671875 C 3.09375 -9.941406 3.859375 -10.078125 4.765625 -10.078125 C 5.398438 -10.078125 6.019531 -10 6.625 -9.84375 C 7.226562 -9.695312 7.753906 -9.484375 8.203125 -9.203125 L 7.5 -7.453125 C 6.582031 -7.972656 5.664062 -8.234375 4.75 -8.234375 C 4.113281 -8.234375 3.640625 -8.128906 3.328125 -7.921875 C 3.023438 -7.710938 2.875 -7.441406 2.875 -7.109375 C 2.875 -6.765625 3.050781 -6.507812 3.40625 -6.34375 C 3.757812 -6.175781 4.300781 -6.015625 5.03125 -5.859375 C 5.78125 -5.679688 6.394531 -5.5 6.875 -5.3125 C 7.363281 -5.132812 7.78125 -4.851562 8.125 -4.46875 C 8.46875 -4.082031 8.640625 -3.5625 8.640625 -2.90625 C 8.640625 -2.332031 8.476562 -1.8125 8.15625 -1.34375 C 7.84375 -0.882812 7.367188 -0.515625 6.734375 -0.234375 C 6.109375 0.0351562 5.34375 0.171875 4.4375 0.171875 Z M 4.4375 0.171875 "/></g></g></g><g fill="#ffffff" fill-opacity="1"><g transform="translate(77.639337, 51.732545)"><g/></g></g><g fill="#ffffff" fill-opacity="1"><g transform="translate(82.906034, 51.732545)"><g><path d="M 3.46875 -8.0625 L 3.46875 -5.453125 L 8.0625 -5.453125 L 8.0625 -3.609375 L 3.46875 -3.609375 L 3.46875 0 L 1.171875 0 L 1.171875 -9.90625 L 8.65625 -9.90625 L 8.65625 -8.0625 Z M 3.46875 -8.0625 "/></g></g></g><g fill="#ffffff" fill-opacity="1"><g transform="translate(93.212319, 51.732545)"><g><path d="M 5.96875 0.171875 C 4.945312 0.171875 4.019531 -0.046875 3.1875 -0.484375 C 2.363281 -0.929688 1.71875 -1.546875 1.25 -2.328125 C 0.78125 -3.109375 0.546875 -3.984375 0.546875 -4.953125 C 0.546875 -5.921875 0.78125 -6.796875 1.25 -7.578125 C 1.71875 -8.359375 2.363281 -8.96875 3.1875 -9.40625 C 4.019531 -9.851562 4.945312 -10.078125 5.96875 -10.078125 C 7 -10.078125 7.925781 -9.851562 8.75 -9.40625 C 9.570312 -8.96875 10.21875 -8.359375 10.6875 -7.578125 C 11.15625 -6.796875 11.390625 -5.921875 11.390625 -4.953125 C 11.390625 -3.984375 11.15625 -3.109375 10.6875 -2.328125 C 10.21875 -1.546875 9.570312 -0.929688 8.75 -0.484375 C 7.925781 -0.046875 7 0.171875 5.96875 0.171875 Z M 5.96875 -1.78125 C 6.5625 -1.78125 7.09375 -1.914062 7.5625 -2.1875 C 8.03125 -2.457031 8.398438 -2.832031 8.671875 -3.3125 C 8.941406 -3.789062 9.078125 -4.335938 9.078125 -4.953125 C 9.078125 -5.566406 8.941406 -6.113281 8.671875 -6.59375 C 8.398438 -7.070312 8.03125 -7.445312 7.5625 -7.71875 C 7.09375 -7.988281 6.5625 -8.125 5.96875 -8.125 C 5.382812 -8.125 4.859375 -7.988281 4.390625 -7.71875 C 3.921875 -7.445312 3.550781 -7.070312 3.28125 -6.59375 C 3.007812 -6.113281 2.875 -5.566406 2.875 -4.953125 C 2.875 -4.335938 3.007812 -3.789062 3.28125 -3.3125 C 3.550781 -2.832031 3.921875 -2.457031 4.390625 -2.1875 C 4.859375 -1.914062 5.382812 -1.78125 5.96875 -1.78125 Z M 5.96875 -1.78125 "/></g></g></g><g fill="#ffffff" fill-opacity="1"><g transform="translate(106.420619, 51.732545)"><g><path d="M 10.265625 -9.90625 L 10.265625 0 L 8.375 0 L 3.4375 -6.015625 L 3.4375 0 L 1.171875 0 L 1.171875 -9.90625 L 3.078125 -9.90625 L 8 -3.890625 L 8 -9.90625 Z M 10.265625 -9.90625 "/></g></g></g><g fill="#ffffff" fill-opacity="1"><g transform="translate(119.119291, 51.732545)"><g><path d="M 3.234375 -8.046875 L 0.0625 -8.046875 L 0.0625 -9.90625 L 8.6875 -9.90625 L 8.6875 -8.046875 L 5.515625 -8.046875 L 5.515625 0 L 3.234375 0 Z M 3.234375 -8.046875 "/></g></g></g><g fill="#ffffff" fill-opacity="1"><g transform="translate(129.128293, 51.732545)"><g><path d="M 8.84375 -1.84375 L 8.84375 0 L 1.171875 0 L 1.171875 -9.90625 L 8.65625 -9.90625 L 8.65625 -8.0625 L 3.453125 -8.0625 L 3.453125 -5.921875 L 8.0625 -5.921875 L 8.0625 -4.140625 L 3.453125 -4.140625 L 3.453125 -1.84375 Z M 8.84375 -1.84375 "/></g></g></g><g fill="#ffffff" fill-opacity="1"><g transform="translate(139.887581, 51.732545)"><g><path d="M 4.4375 0.171875 C 3.644531 0.171875 2.882812 0.0664062 2.15625 -0.140625 C 1.425781 -0.359375 0.835938 -0.640625 0.390625 -0.984375 L 1.171875 -2.703125 C 1.597656 -2.390625 2.101562 -2.140625 2.6875 -1.953125 C 3.269531 -1.765625 3.851562 -1.671875 4.4375 -1.671875 C 5.09375 -1.671875 5.578125 -1.765625 5.890625 -1.953125 C 6.203125 -2.148438 6.359375 -2.410156 6.359375 -2.734375 C 6.359375 -2.972656 6.265625 -3.164062 6.078125 -3.3125 C 5.890625 -3.46875 5.648438 -3.59375 5.359375 -3.6875 C 5.078125 -3.789062 4.691406 -3.894531 4.203125 -4 C 3.453125 -4.1875 2.832031 -4.367188 2.34375 -4.546875 C 1.863281 -4.722656 1.453125 -5.007812 1.109375 -5.40625 C 0.765625 -5.800781 0.59375 -6.332031 0.59375 -7 C 0.59375 -7.570312 0.75 -8.09375 1.0625 -8.5625 C 1.375 -9.03125 1.84375 -9.398438 2.46875 -9.671875 C 3.09375 -9.941406 3.859375 -10.078125 4.765625 -10.078125 C 5.398438 -10.078125 6.019531 -10 6.625 -9.84375 C 7.226562 -9.695312 7.753906 -9.484375 8.203125 -9.203125 L 7.5 -7.453125 C 6.582031 -7.972656 5.664062 -8.234375 4.75 -8.234375 C 4.113281 -8.234375 3.640625 -8.128906 3.328125 -7.921875 C 3.023438 -7.710938 2.875 -7.441406 2.875 -7.109375 C 2.875 -6.765625 3.050781 -6.507812 3.40625 -6.34375 C 3.757812 -6.175781 4.300781 -6.015625 5.03125 -5.859375 C 5.78125 -5.679688 6.394531 -5.5 6.875 -5.3125 C 7.363281 -5.132812 7.78125 -4.851562 8.125 -4.46875 C 8.46875 -4.082031 8.640625 -3.5625 8.640625 -2.90625 C 8.640625 -2.332031 8.476562 -1.8125 8.15625 -1.34375 C 7.84375 -0.882812 7.367188 -0.515625 6.734375 -0.234375 C 6.109375 0.0351562 5.34375 0.171875 4.4375 0.171875 Z M 4.4375 0.171875 "/></g></g></g><g fill="#ffffff" fill-opacity="1"><g transform="translate(54.366926, 62.21404)"><g><path d="M 2.453125 0.078125 C 2.035156 0.078125 1.65625 -0.0078125 1.3125 -0.1875 C 0.976562 -0.375 0.710938 -0.628906 0.515625 -0.953125 C 0.328125 -1.273438 0.234375 -1.644531 0.234375 -2.0625 C 0.234375 -2.46875 0.328125 -2.832031 0.515625 -3.15625 C 0.710938 -3.476562 0.976562 -3.726562 1.3125 -3.90625 C 1.65625 -4.09375 2.039062 -4.1875 2.46875 -4.1875 C 2.820312 -4.1875 3.140625 -4.125 3.421875 -4 C 3.710938 -3.875 3.957031 -3.691406 4.15625 -3.453125 L 3.546875 -2.890625 C 3.265625 -3.210938 2.921875 -3.375 2.515625 -3.375 C 2.253906 -3.375 2.023438 -3.316406 1.828125 -3.203125 C 1.628906 -3.085938 1.472656 -2.929688 1.359375 -2.734375 C 1.242188 -2.535156 1.1875 -2.3125 1.1875 -2.0625 C 1.1875 -1.800781 1.242188 -1.570312 1.359375 -1.375 C 1.472656 -1.175781 1.628906 -1.019531 1.828125 -0.90625 C 2.023438 -0.789062 2.253906 -0.734375 2.515625 -0.734375 C 2.921875 -0.734375 3.265625 -0.898438 3.546875 -1.234375 L 4.15625 -0.65625 C 3.957031 -0.425781 3.710938 -0.242188 3.421875 -0.109375 C 3.128906 0.015625 2.804688 0.078125 2.453125 0.078125 Z M 2.453125 0.078125 "/></g></g></g><g fill="#ffffff" fill-opacity="1"><g transform="translate(59.601176, 62.21404)"><g><path d="M 2.484375 0.078125 C 2.054688 0.078125 1.671875 -0.015625 1.328125 -0.203125 C 0.984375 -0.390625 0.710938 -0.644531 0.515625 -0.96875 C 0.328125 -1.289062 0.234375 -1.65625 0.234375 -2.0625 C 0.234375 -2.457031 0.328125 -2.816406 0.515625 -3.140625 C 0.710938 -3.460938 0.984375 -3.71875 1.328125 -3.90625 C 1.671875 -4.09375 2.054688 -4.1875 2.484375 -4.1875 C 2.910156 -4.1875 3.289062 -4.09375 3.625 -3.90625 C 3.96875 -3.71875 4.238281 -3.460938 4.4375 -3.140625 C 4.632812 -2.816406 4.734375 -2.457031 4.734375 -2.0625 C 4.734375 -1.65625 4.632812 -1.289062 4.4375 -0.96875 C 4.238281 -0.644531 3.96875 -0.390625 3.625 -0.203125 C 3.289062 -0.015625 2.910156 0.078125 2.484375 0.078125 Z M 2.484375 -0.734375 C 2.722656 -0.734375 2.941406 -0.789062 3.140625 -0.90625 C 3.335938 -1.019531 3.488281 -1.175781 3.59375 -1.375 C 3.707031 -1.570312 3.765625 -1.800781 3.765625 -2.0625 C 3.765625 -2.3125 3.707031 -2.535156 3.59375 -2.734375 C 3.488281 -2.929688 3.335938 -3.085938 3.140625 -3.203125 C 2.941406 -3.316406 2.722656 -3.375 2.484375 -3.375 C 2.234375 -3.375 2.007812 -3.316406 1.8125 -3.203125 C 1.625 -3.085938 1.472656 -2.929688 1.359375 -2.734375 C 1.242188 -2.535156 1.1875 -2.3125 1.1875 -2.0625 C 1.1875 -1.800781 1.242188 -1.570312 1.359375 -1.375 C 1.472656 -1.175781 1.625 -1.019531 1.8125 -0.90625 C 2.007812 -0.789062 2.234375 -0.734375 2.484375 -0.734375 Z M 2.484375 -0.734375 "/></g></g></g><g fill="#ffffff" fill-opacity="1"><g transform="translate(65.488153, 62.21404)"><g><path d="M 3.109375 0 L 2.3125 -1.140625 L 1.4375 -1.140625 L 1.4375 0 L 0.484375 0 L 0.484375 -4.109375 L 2.265625 -4.109375 C 2.628906 -4.109375 2.945312 -4.046875 3.21875 -3.921875 C 3.488281 -3.804688 3.691406 -3.632812 3.828125 -3.40625 C 3.972656 -3.1875 4.046875 -2.925781 4.046875 -2.625 C 4.046875 -2.3125 3.972656 -2.046875 3.828125 -1.828125 C 3.679688 -1.609375 3.472656 -1.441406 3.203125 -1.328125 L 4.125 0 Z M 3.09375 -2.625 C 3.09375 -2.851562 3.015625 -3.03125 2.859375 -3.15625 C 2.710938 -3.28125 2.5 -3.34375 2.21875 -3.34375 L 1.4375 -3.34375 L 1.4375 -1.90625 L 2.21875 -1.90625 C 2.5 -1.90625 2.710938 -1.96875 2.859375 -2.09375 C 3.015625 -2.21875 3.09375 -2.394531 3.09375 -2.625 Z M 3.09375 -2.625 "/></g></g></g><g fill="#ffffff" fill-opacity="1"><g transform="translate(70.734162, 62.21404)"><g><path d="M 3.109375 0 L 2.3125 -1.140625 L 1.4375 -1.140625 L 1.4375 0 L 0.484375 0 L 0.484375 -4.109375 L 2.265625 -4.109375 C 2.628906 -4.109375 2.945312 -4.046875 3.21875 -3.921875 C 3.488281 -3.804688 3.691406 -3.632812 3.828125 -3.40625 C 3.972656 -3.1875 4.046875 -2.925781 4.046875 -2.625 C 4.046875 -2.3125 3.972656 -2.046875 3.828125 -1.828125 C 3.679688 -1.609375 3.472656 -1.441406 3.203125 -1.328125 L 4.125 0 Z M 3.09375 -2.625 C 3.09375 -2.851562 3.015625 -3.03125 2.859375 -3.15625 C 2.710938 -3.28125 2.5 -3.34375 2.21875 -3.34375 L 1.4375 -3.34375 L 1.4375 -1.90625 L 2.21875 -1.90625 C 2.5 -1.90625 2.710938 -1.96875 2.859375 -2.09375 C 3.015625 -2.21875 3.09375 -2.394531 3.09375 -2.625 Z M 3.09375 -2.625 "/></g></g></g><g fill="#ffffff" fill-opacity="1"><g transform="translate(75.980173, 62.21404)"><g><path d="M 3.671875 -0.765625 L 3.671875 0 L 0.484375 0 L 0.484375 -4.109375 L 3.59375 -4.109375 L 3.59375 -3.34375 L 1.4375 -3.34375 L 1.4375 -2.453125 L 3.34375 -2.453125 L 3.34375 -1.71875 L 1.4375 -1.71875 L 1.4375 -0.765625 Z M 3.671875 -0.765625 "/></g></g></g><g fill="#ffffff" fill-opacity="1"><g transform="translate(80.849835, 62.21404)"><g><path d="M 1.34375 -3.34375 L 0.03125 -3.34375 L 0.03125 -4.109375 L 3.609375 -4.109375 L 3.609375 -3.34375 L 2.296875 -3.34375 L 2.296875 0 L 1.34375 0 Z M 1.34375 -3.34375 "/></g></g></g><g fill="#ffffff" fill-opacity="1"><g transform="translate(85.407836, 62.21404)"><g><path d="M 2.484375 0.078125 C 2.054688 0.078125 1.671875 -0.015625 1.328125 -0.203125 C 0.984375 -0.390625 0.710938 -0.644531 0.515625 -0.96875 C 0.328125 -1.289062 0.234375 -1.65625 0.234375 -2.0625 C 0.234375 -2.457031 0.328125 -2.816406 0.515625 -3.140625 C 0.710938 -3.460938 0.984375 -3.71875 1.328125 -3.90625 C 1.671875 -4.09375 2.054688 -4.1875 2.484375 -4.1875 C 2.910156 -4.1875 3.289062 -4.09375 3.625 -3.90625 C 3.96875 -3.71875 4.238281 -3.460938 4.4375 -3.140625 C 4.632812 -2.816406 4.734375 -2.457031 4.734375 -2.0625 C 4.734375 -1.65625 4.632812 -1.289062 4.4375 -0.96875 C 4.238281 -0.644531 3.96875 -0.390625 3.625 -0.203125 C 3.289062 -0.015625 2.910156 0.078125 2.484375 0.078125 Z M 2.484375 -0.734375 C 2.722656 -0.734375 2.941406 -0.789062 3.140625 -0.90625 C 3.335938 -1.019531 3.488281 -1.175781 3.59375 -1.375 C 3.707031 -1.570312 3.765625 -1.800781 3.765625 -2.0625 C 3.765625 -2.3125 3.707031 -2.535156 3.59375 -2.734375 C 3.488281 -2.929688 3.335938 -3.085938 3.140625 -3.203125 C 2.941406 -3.316406 2.722656 -3.375 2.484375 -3.375 C 2.234375 -3.375 2.007812 -3.316406 1.8125 -3.203125 C 1.625 -3.085938 1.472656 -2.929688 1.359375 -2.734375 C 1.242188 -2.535156 1.1875 -2.3125 1.1875 -2.0625 C 1.1875 -1.800781 1.242188 -1.570312 1.359375 -1.375 C 1.472656 -1.175781 1.625 -1.019531 1.8125 -0.90625 C 2.007812 -0.789062 2.234375 -0.734375 2.484375 -0.734375 Z M 2.484375 -0.734375 "/></g></g></g><g fill="#ffffff" fill-opacity="1"><g transform="translate(91.294814, 62.21404)"><g><path d="M 3.109375 0 L 2.3125 -1.140625 L 1.4375 -1.140625 L 1.4375 0 L 0.484375 0 L 0.484375 -4.109375 L 2.265625 -4.109375 C 2.628906 -4.109375 2.945312 -4.046875 3.21875 -3.921875 C 3.488281 -3.804688 3.691406 -3.632812 3.828125 -3.40625 C 3.972656 -3.1875 4.046875 -2.925781 4.046875 -2.625 C 4.046875 -2.3125 3.972656 -2.046875 3.828125 -1.828125 C 3.679688 -1.609375 3.472656 -1.441406 3.203125 -1.328125 L 4.125 0 Z M 3.09375 -2.625 C 3.09375 -2.851562 3.015625 -3.03125 2.859375 -3.15625 C 2.710938 -3.28125 2.5 -3.34375 2.21875 -3.34375 L 1.4375 -3.34375 L 1.4375 -1.90625 L 2.21875 -1.90625 C 2.5 -1.90625 2.710938 -1.96875 2.859375 -2.09375 C 3.015625 -2.21875 3.09375 -2.394531 3.09375 -2.625 Z M 3.09375 -2.625 "/></g></g></g><path stroke-linecap="butt" transform="matrix(0.75, 0, 0, 0.75, 101.403664, 60.033536)" fill="none" stroke-linejoin="miter" d="M -0.00176076 0.50216 L 29.336783 0.50216 " stroke="#ffffff" stroke-width="1" stroke-opacity="1" stroke-miterlimit="4"/><path stroke-linecap="butt" transform="matrix(0.75, 0, 0, 0.75, 26.854121, 60.033536)" fill="none" stroke-linejoin="miter" d="M 0.00179747 0.50216 L 29.335133 0.50216 " stroke="#ffffff" stroke-width="1" stroke-opacity="1" stroke-miterlimit="4"/><g clip-path="url(#6e46e68620)"><path fill="#ffffff" d="M 83.765625 26.480469 C 86.472656 24.640625 89.035156 22.898438 89.441406 20.195312 C 89.25 22.75 89.738281 26.085938 85.433594 28.75 C 82.484375 30.574219 77.746094 31.59375 76.910156 36.097656 C 76.660156 31.304688 80.265625 28.855469 83.765625 26.480469 " fill-opacity="1" fill-rule="nonzero"/></g><g clip-path="url(#d8bcf0b71c)"><path fill="#ffffff" d="M 76.449219 37.785156 C 74.636719 31.617188 74.988281 27.640625 79.394531 24.964844 C 82.957031 22.492188 86.867188 20.089844 86.867188 11.183594 C 86.867188 11.183594 88.898438 15.183594 88.445312 19.285156 C 87.636719 26.589844 74.976562 26.648438 76.449219 37.785156 " fill-opacity="1" fill-rule="nonzero"/></g><g clip-path="url(#803c471f4c)"><path fill="#ffffff" d="M 66.21875 26.480469 C 63.515625 24.640625 60.949219 22.898438 60.546875 20.195312 C 60.734375 22.75 60.25 26.085938 64.550781 28.75 C 67.5 30.574219 72.238281 31.59375 73.074219 36.097656 C 73.324219 31.304688 69.71875 28.855469 66.21875 26.480469 " fill-opacity="1" fill-rule="nonzero"/></g><path fill="#ffffff" d="M 78.910156 20.785156 C 78.660156 20.640625 78.320312 20.515625 77.828125 20.558594 C 77.320312 20.601562 77 20.273438 77 20.273438 C 77 20.273438 77.355469 20.382812 77.910156 20.320312 C 76.839844 19.792969 76.082031 19.460938 74.828125 20.421875 C 73.214844 21.65625 70.984375 21.660156 70.984375 21.660156 C 70.984375 21.660156 72.363281 22.542969 73.683594 22.21875 C 73.683594 22.21875 72.367188 22.917969 71.101562 24.175781 C 73.292969 25.554688 74.574219 27.316406 75.015625 29.566406 C 75.046875 29.730469 75.074219 29.898438 75.097656 30.066406 C 75.320312 27.265625 76.234375 22.367188 78.230469 22.15625 C 78.707031 22.109375 79.53125 22.277344 79.757812 23.308594 C 79.757812 23.308594 80.492188 21.683594 78.910156 20.785156 " fill-opacity="1" fill-rule="nonzero"/><g clip-path="url(#b29f690e0b)"><path fill="#ffffff" d="M 73.535156 37.785156 C 75.351562 31.617188 75 27.640625 70.589844 24.964844 C 67.03125 22.492188 63.117188 20.089844 63.117188 11.183594 C 63.117188 11.183594 61.085938 15.183594 61.539062 19.285156 C 62.351562 26.589844 75.007812 26.648438 73.535156 37.785156 " fill-opacity="1" fill-rule="nonzero"/></g></svg>