<svg width="24" height="23" viewBox="0 0 24 23" fill="none" xmlns="http://www.w3.org/2000/svg">
<path d="M22.6 22.1357C19.8222 22.1357 17.0778 21.592 14.3667 20.5046C11.6556 19.4172 9.18889 17.8759 6.96667 15.8806C4.74444 13.8853 3.02778 11.6706 1.81667 9.23637C0.605555 6.80215 0 4.33801 0 1.84393C0 1.48478 0.133333 1.18549 0.4 0.946061C0.666667 0.70663 1 0.586914 1.4 0.586914H6.8C7.11111 0.586914 7.38889 0.681689 7.63333 0.871239C7.87778 1.06079 8.02222 1.28526 8.06667 1.54464L8.93333 5.73469C8.97778 6.05393 8.96667 6.32329 8.9 6.54277C8.83333 6.76225 8.71111 6.9518 8.53333 7.11142L5.3 10.0445C5.74444 10.7827 6.27222 11.496 6.88333 12.1844C7.49444 12.8727 8.16667 13.5362 8.9 14.1746C9.58889 14.7932 10.3111 15.3668 11.0667 15.8956C11.8222 16.4243 12.6222 16.9081 13.4667 17.3471L16.6 14.5338C16.8 14.3542 17.0611 14.2195 17.3833 14.1297C17.7056 14.04 18.0222 14.015 18.3333 14.0549L22.9333 14.8929C23.2444 14.9727 23.5 15.1174 23.7 15.3269C23.9 15.5364 24 15.7709 24 16.0302V20.8787C24 21.2379 23.8667 21.5372 23.6 21.7766C23.3333 22.016 23 22.1357 22.6 22.1357ZM4.03333 7.76985L6.23333 5.79455L5.66667 2.98123H2.7C2.81111 3.79928 2.96667 4.60737 3.16667 5.40547C3.36667 6.20357 3.65556 6.9917 4.03333 7.76985ZM15.9667 18.4844C16.8333 18.8236 17.7167 19.093 18.6167 19.2925C19.5167 19.492 20.4222 19.6217 21.3333 19.6816V17.0478L18.2 16.4792L15.9667 18.4844Z" fill="#B3B3B3"/>
</svg>
